<svg width="274" height="608" viewBox="0 0 274 608" fill="none" xmlns="http://www.w3.org/2000/svg">
<g style="mix-blend-mode:darken" opacity="0.04">
<g style="mix-blend-mode:darken" opacity="0.04">
<path d="M272.978 586.762C243.056 589.161 213.091 590.303 183.083 590.186C164.03 590.09 144.976 589.501 125.955 588.116C116.755 587.447 106.997 586.762 98.4983 590.743C97.7649 593.021 96.9836 595.282 96.1704 597.512C96.76 597.685 97.3741 597.76 97.9881 597.735C107.634 596.895 117.34 597.029 126.959 598.133C135.856 599.407 144.498 602.178 153.411 604.073C189.605 611.813 226.596 604.535 262.853 597.257C267.637 596.301 273.839 592.941 272.978 586.762Z" fill="#333333"/>
</g>
</g>
<path d="M185.14 35.1069C182.94 31.2529 177.551 30.3292 174.999 26.6981C172.05 22.5255 173.804 16.1711 170.519 12.2534C168.364 10.1184 165.454 8.91684 162.419 8.90895C159.416 8.91117 156.421 8.58001 153.49 7.92155C148.309 6.32897 144.562 1.32826 139.268 0.165669C136.414 -0.313409 133.483 0.254622 131.016 1.76496C128.548 3.2753 126.711 5.62603 125.843 8.3834C125.533 9.41717 125.372 10.4896 125.365 11.5686C124.007 11.5688 122.665 11.8523 121.424 12.4008C120.183 12.9493 119.071 13.7507 118.158 14.7537C116.244 16.9037 115.367 19.8182 113.374 21.9204C111.381 24.0226 108.288 25.3126 106.63 27.8129C105.777 29.2222 105.233 30.7965 105.036 32.4314C104.143 37.7825 104.653 43.675 108.001 47.9432C111.349 52.2113 118.062 54.0428 122.351 50.7939C122.351 50.7939 152.645 65.1271 158.848 68.9493C161.965 70.8076 165.571 71.6804 169.194 71.453C172.817 71.2256 176.286 69.9087 179.145 67.6753C179.778 67.2509 180.317 66.7011 180.728 66.06C181.14 65.419 181.415 64.7003 181.537 63.9486C181.375 62.452 180.92 61.0018 180.197 59.6805C178.778 55.5716 181.106 51.208 183.179 47.3698C185.252 43.5317 187.293 38.8973 185.14 35.1069Z" fill="#333333"/>
<path d="M112.433 38.1647C114.761 23.5448 129.35 -0.933246 155.26 14.1326C163.424 18.9103 166.9 27.5103 168.542 36.4288C169.706 42.6876 167.489 100.674 167.489 100.674C165.672 123.447 130.084 126.887 127.788 100.514L128.489 84.1266C109.707 78.1544 109.835 54.6001 112.433 38.1647Z" fill="#F9C4B4"/>
<path d="M128.49 84.1745C128.49 84.1745 139.093 87.71 159.103 75.2878C151.244 85.8855 140.362 93.8629 127.884 98.1733L128.49 84.1745Z" fill="#333333"/>
<path d="M181.983 45.9047C181.636 43.1983 180.238 40.7367 178.091 39.0505C175.943 37.3643 173.218 36.5886 170.503 36.8906C169.164 37.0256 167.865 37.4243 166.68 38.0638C165.496 38.7033 164.451 39.5708 163.604 40.6163C162.758 41.6618 162.127 42.8645 161.748 44.1549C161.37 45.4453 161.251 46.7978 161.399 48.1343C161.742 50.8412 163.14 53.3039 165.289 54.9884C167.438 56.6728 170.165 57.4432 172.879 57.1324C174.218 56.9994 175.517 56.6025 176.701 55.9647C177.885 55.3269 178.931 54.4608 179.777 53.4166C180.624 52.3724 181.255 51.1708 181.634 49.8813C182.012 48.5919 182.131 47.2403 181.983 45.9047V45.9047Z" fill="#F9C4B4"/>
<path d="M173.533 42.5921C172.791 42.8411 172.08 43.1723 171.412 43.5795C170.211 44.3232 169.175 45.3041 168.367 46.462C167.938 47.1122 167.579 47.8062 167.298 48.5324C166.919 47.7126 166.862 46.7803 167.139 45.9206C167.4 45.0392 167.889 44.2425 168.558 43.6113C169.224 42.9912 170.036 42.5477 170.918 42.3213C171.793 42.0887 172.723 42.1851 173.533 42.5921V42.5921Z" fill="#251B2D"/>
<path d="M142.409 33.9603C142.409 34.868 140.99 35.5529 139.364 35.4095C137.738 35.2662 136.462 34.454 136.526 33.5462C136.59 32.6384 137.961 31.9536 139.587 32.097C141.213 32.2403 142.473 33.0525 142.409 33.9603Z" fill="#371C09"/>
<path d="M123.627 33.3869C123.547 34.2947 122.176 34.9795 120.549 34.7566C118.923 34.5336 117.695 33.7055 117.775 32.7977C117.855 31.8899 119.226 31.2051 120.836 31.4281C122.447 31.651 123.706 32.4314 123.627 33.3869Z" fill="#371C09"/>
<g style="mix-blend-mode:soft-light" opacity="0.46">
<path d="M149.329 69.1563C155.291 69.1563 160.123 64.3292 160.123 58.3746C160.123 52.4199 155.291 47.5928 149.329 47.5928C143.367 47.5928 138.535 52.4199 138.535 58.3746C138.535 64.3292 143.367 69.1563 149.329 69.1563Z" fill="#333333"/>
</g>
<path d="M120.055 42.194C120.055 43.3088 120.454 44.2484 121.092 44.2962C121.729 44.3439 122.335 43.468 122.399 42.3373C122.463 41.2066 122.016 40.2829 121.363 40.2351C120.709 40.1873 120.135 41.0632 120.055 42.194Z" fill="#333333" stroke="#333333" stroke-width="0.49" stroke-miterlimit="10"/>
<path d="M136.701 42.7673C136.701 43.8821 137.084 44.8217 137.738 44.8695C138.391 44.9172 138.981 44.0413 139.045 42.9106C139.109 41.7799 138.662 40.8562 138.009 40.8084C137.355 40.7606 136.765 41.6365 136.701 42.7673Z" fill="#333333" stroke="#333333" stroke-width="0.49" stroke-miterlimit="10"/>
<g style="mix-blend-mode:soft-light" opacity="0.46">
<path d="M111.605 44.7739C110.753 51.9534 111.141 59.2256 112.753 66.2738C115.496 65.9747 118.02 64.6378 119.807 62.5376C121.593 60.4375 122.507 57.7336 122.36 54.9815C122.213 52.2293 121.017 49.6379 119.017 47.7395C117.016 45.8411 114.364 44.7799 111.605 44.7739V44.7739Z" fill="#333333"/>
</g>
<path d="M134.548 57.3872C134.247 58.393 133.667 59.2931 132.874 59.9831C132.035 60.7854 130.926 61.2455 129.765 61.2731C128.568 61.2627 127.422 60.7822 126.576 59.9353C125.795 59.2109 125.279 58.2468 125.109 57.196C126.002 57.7375 126.704 58.2472 127.533 58.6134C128.205 58.9593 128.946 59.1499 129.701 59.1709C130.475 59.1474 131.235 58.963 131.934 58.6294C132.795 58.2949 133.576 57.8012 134.548 57.3872Z" fill="#333333"/>
<path d="M128.33 36.8588C128.461 39.2652 128.392 41.6782 128.123 44.0732C127.995 45.2517 127.868 46.4461 127.676 47.6246C127.485 48.8031 127.278 49.9816 127.039 51.1602L126.481 50.3639C128.249 50.8394 129.98 51.4409 131.663 52.1635C129.832 52.1541 128.005 52.0157 126.194 51.7494H125.572V51.0328C125.667 49.8383 125.779 48.6598 125.939 47.4654C126.098 46.2709 126.273 45.1083 126.481 43.9298C126.896 41.5249 127.515 39.1595 128.33 36.8588V36.8588Z" fill="#251B2D"/>
<path d="M134.548 57.3872C134.247 58.393 133.667 59.2931 132.874 59.9831C132.035 60.7854 130.926 61.2455 129.765 61.2731C128.568 61.2627 127.422 60.7822 126.576 59.9353C125.795 59.2109 125.279 58.2468 125.109 57.196C126.002 57.7375 126.704 58.2472 127.533 58.6134C128.205 58.9593 128.946 59.1499 129.701 59.1709C130.475 59.1474 131.235 58.963 131.934 58.6294C132.795 58.2949 133.576 57.8012 134.548 57.3872Z" fill="#333333"/>
<path d="M170.934 28.3066C169.543 24.7789 167.511 21.5391 164.939 18.7511C162.922 16.9057 160.696 15.3022 158.306 13.9734C156.619 12.9043 154.867 11.9416 153.06 11.0908C151.006 10.2131 148.869 9.54095 146.682 9.08415C143.225 8.15397 139.625 7.86784 136.063 8.24009C132.972 8.6423 130.099 10.0466 127.884 12.2375C124.504 14.6562 121.637 17.7198 119.449 21.2515C118.014 23.2741 116.611 25.2967 115.208 27.3192C116.11 27.1241 116.984 26.8137 117.807 26.3955C119.021 25.6764 120.145 24.8157 121.155 23.8315C123.984 21.4823 126.223 18.5044 127.692 15.136C128.55 17.5242 130.251 19.5175 132.476 20.7419C135.322 22.1451 138.496 22.7506 141.66 22.4937C144.291 22.3822 147.033 21.9363 149.504 22.8919C150.736 23.4403 151.845 24.2284 152.767 25.2101C153.69 26.1918 154.407 27.3473 154.878 28.6092C155.816 31.1393 156.432 33.7771 156.711 36.4607C156.752 37.6509 157.177 38.7961 157.923 39.7255C158.481 40.2237 159.175 40.5452 159.916 40.6492C163.105 41.2066 166.055 39.3592 168.526 37.3207C169.387 36.7492 170.126 36.0131 170.701 35.1548C171.276 34.2965 171.674 33.333 171.874 32.3199C171.909 30.9239 171.585 29.5424 170.934 28.3066V28.3066Z" fill="#333333"/>
<path d="M48.9273 169.664C67.5663 143.196 115.655 104.623 115.655 104.623L127.964 114.768L92.4715 189.906C92.4715 189.906 68.794 235.024 52.467 236.171C27.2429 237.954 24.7078 204.016 48.9273 169.664Z" fill="#F9C4B4"/>
<g style="mix-blend-mode:soft-light" opacity="0.46">
<path d="M115.065 141.38L92.8699 123.798L60.1201 156.08L90.9247 191.116L115.065 141.38Z" fill="#333333"/>
</g>
<path d="M99.965 174.681L61.3955 143.737C61.3955 143.737 106.183 90.1148 136.334 101.534L124.775 122.572L99.965 174.681Z" fill="#BAD2C8"/>
<path d="M42.5812 143.132L38.8821 144.724C30.6229 148.164 22.3477 151.535 14.0566 154.837C18.6167 182.405 26.7006 214.718 34.9279 226.504C45.228 241.267 72.748 227.029 71.4565 212.76C71.0738 207.281 51.9565 164.058 42.5812 143.132Z" fill="#F9C4B4"/>
<path d="M48.5763 152.624C44.5605 145.815 41.1358 138.675 38.34 131.283C38.7705 130.136 41.5289 117.364 40.1577 113.988C38.1646 108.732 28.7255 119.928 28.6777 122.81C28.3907 120.119 25.9193 98.014 21.8694 98.3803C19.4299 98.6032 20.5939 113.526 20.5939 113.526C20.5939 113.526 13.7697 94.2714 11.7607 95.0358C9.7517 95.8003 15.0452 114.497 15.0452 114.497C15.0452 114.497 8.0775 100.546 5.84529 101.565C3.93196 102.425 9.16175 117.396 9.16175 117.396C9.16175 117.396 2.16213 109.544 0.312578 110.516C-1.53697 111.487 5.38289 123.893 6.38739 127.636C7.073 130.184 10.3575 155.825 14.7104 169.744C15.2525 169.473 39.4083 157.608 48.5763 152.624Z" fill="#FC9B27"/>
<path d="M48.5765 152.624C48.5765 152.624 50.2985 153.691 49.7723 154.423C49.2462 155.156 16.1137 172.563 15.173 171.018L14.2163 169.425L48.5765 152.624Z" fill="#FCB970"/>
<path d="M52.7061 165.094L61.2204 183.392" stroke="#333333" stroke-width="1.1" stroke-miterlimit="10" stroke-linecap="round"/>
<path d="M161.734 227.22C155.165 209.192 107.889 220.531 107.889 220.531C107.889 220.531 85.5673 300.845 79.8592 383.819C73.306 480.234 98.9924 587.94 98.9924 587.94C114.347 591.205 142.17 589.947 142.17 589.947V438.333C142.058 437.999 147.129 340.564 154.335 311.786C164.173 272.561 161.734 227.22 161.734 227.22Z" fill="#3F5B99"/>
<path d="M202.822 228.287C196.253 210.243 143.27 221.2 143.27 221.2C143.27 221.2 135.856 245.089 134.501 290.51C134.006 306.865 140.145 370.282 139.427 380.809C132.874 477.24 157.189 587.717 157.189 587.717C172.544 590.902 200.367 589.708 200.367 589.708V438.094C200.255 437.76 205.31 340.326 212.517 311.548C222.434 272.274 202.822 228.287 202.822 228.287Z" fill="#435CA1"/>
<g style="mix-blend-mode:soft-light" opacity="0.46">
<path d="M182.765 259.04C163.854 257.256 144.498 259.597 125.971 263.547C118.572 265.14 111.27 266.987 104.015 269.057C104.968 271.899 106.612 274.459 108.798 276.511C116.771 283.805 129.223 281.288 140.034 281.798C164.205 283.12 185.076 302.39 209.28 301.896C211.036 301.868 212.786 301.687 214.51 301.355C215.875 289.523 215.526 277.557 213.473 265.824C203.488 262.549 193.201 260.276 182.765 259.04V259.04Z" fill="#333333"/>
</g>
<path d="M185.571 279.552C185.571 279.552 174.41 329.225 194.101 332.426" stroke="#6693B9" stroke-width="1.2" stroke-miterlimit="10" stroke-linecap="round"/>
<path d="M198.39 279.027C194.18 334.337 194.388 333.461 190.912 361.172C187.723 386.781 183.976 480.122 191.98 555.34" stroke="#6693B9" stroke-width="1.2" stroke-miterlimit="10" stroke-linecap="round"/>
<path d="M103.329 273.15C103.329 273.15 102.771 323.237 86.4282 326.247" stroke="#6693B9" stroke-width="1.2" stroke-miterlimit="10" stroke-linecap="round"/>
<path d="M135.266 268.484C135.266 268.484 129.957 449.051 142.824 494.535" stroke="#6693B9" stroke-width="1.2" stroke-miterlimit="10" stroke-linecap="round"/>
<path d="M146.762 270.554C146.762 270.554 150.269 332.267 135.696 326.295" stroke="#6693B9" stroke-width="1.2" stroke-miterlimit="10" stroke-linecap="round"/>
<path d="M142.617 555.754L91.435 557.219L94.2731 579.133C94.2731 579.133 78.3287 589.756 78.7114 598.372L142.393 597.559L142.617 555.754Z" fill="#8093A0"/>
<path d="M127.437 594.39C127.437 594.39 121.347 577.859 94.2729 579.197" stroke="#333333" stroke-width="1.04" stroke-miterlimit="10" stroke-linecap="round"/>
<path d="M200.861 555.595L149.68 557.06L152.518 578.958C152.518 578.958 136.573 589.581 136.956 598.197L200.638 597.4L200.861 555.595Z" fill="#8093A0"/>
<path d="M185.682 594.151C185.682 594.151 179.608 577.62 152.518 578.958" stroke="#333333" stroke-width="1.04" stroke-miterlimit="10" stroke-linecap="round"/>
<path d="M166.772 97.5999L128.043 99.1925L120.071 99.8295C107.858 105.786 106.12 115.596 101.831 128.209C91.5625 158.468 93.5077 200.417 96.585 228.415C96.585 228.415 86.2052 263.053 93.1569 270.284C101.639 279.107 128.043 266.175 140.225 268.484C152.024 270.73 169.116 277.944 190.019 278.485C243.018 279.887 213.043 251.189 212.852 240.152C223.311 220.707 217.906 171.91 203.524 133.799C198.278 119.896 190.466 106.264 177.583 99.2562C174.872 97.7592 169.004 97.5999 166.772 97.5999Z" fill="#BAD2C8"/>
<path d="M120.31 99.8296C120.31 99.8296 102.468 225.548 107.363 273.421C107.602 275.778 116.659 271.558 116.659 271.558C114.06 233.113 126.815 99.2881 126.815 99.2881L120.31 99.8296Z" fill="#2D458B"/>
<path d="M175.908 98.1892C175.908 98.1892 190.258 230.867 185.379 278.788C185.14 281.129 176.084 276.925 176.084 276.925C178.682 238.48 169.403 97.6796 169.403 97.6796L175.908 98.1892Z" fill="#2D458B"/>
<path d="M231.172 194.126C223.869 162.609 193.83 108.796 193.83 108.796L178.603 113.574L183.195 196.547C183.195 196.547 188.154 247.223 202.823 254.437C225.543 265.554 240.675 235.056 231.172 194.126Z" fill="#F9C4B4"/>
<g style="mix-blend-mode:soft-light" opacity="0.46">
<path d="M180.532 143.084L207.717 135.121L225.894 177.341L184.168 198.219L180.532 143.084Z" fill="#333333"/>
</g>
<path d="M181.999 179.602L229.386 165.428C229.386 165.428 208.068 98.9058 175.86 98.1891L178.603 122.078L181.999 179.602Z" fill="#BAD2C8"/>
<path d="M83.9093 180.637C83.6542 179.857 73.5933 166.065 73.5933 166.065C73.5933 166.065 74.2629 154.614 85.7269 154.344C97.1909 154.073 196.445 151.748 170.934 177.771C145.423 203.793 83.9093 180.637 83.9093 180.637Z" fill="#3F1F1F"/>
<path d="M168.797 171.448C168.43 164.982 170.551 158.707 172.942 152.64C181.473 131.092 194.356 110.532 213.473 97.4088C191.248 117.385 177.702 145.233 175.717 175.031" fill="#698937"/>
<path d="M172.05 172.26C180.808 146.518 198.054 124.508 220.967 109.831L211.034 120.74C198.725 134.261 185.714 149.407 185.108 167.689" fill="#698937"/>
<path d="M107.65 202.742C100.812 200.56 94.9754 196.017 91.1853 189.928C87.3953 183.839 85.8996 176.6 86.9664 169.51C88.0331 162.419 91.5926 155.939 97.007 151.231C102.421 146.524 109.337 143.895 116.515 143.817C120.613 143.817 124.759 144.613 128.793 143.817C134.836 142.686 140.639 138.099 146.507 139.947C148.596 140.6 150.365 142.017 152.406 142.797C157.524 144.756 163.408 142.415 168.67 143.912C173.931 145.409 177.551 150.521 180.038 155.522C182.404 159.999 183.989 164.847 184.726 169.855C186.942 188.027 171.97 205.099 154.24 210.084C136.51 215.069 115.176 209.033 100.332 199.398" fill="#FC9A54"/>
<path d="M131.072 148.578C128.361 143.697 125.313 139.009 121.952 134.548C121.473 133.922 121.152 133.189 121.019 132.411C120.885 131.634 120.942 130.836 121.185 130.086C121.428 129.336 121.85 128.656 122.414 128.104C122.978 127.553 123.668 127.146 124.424 126.919C124.817 126.805 125.228 126.767 125.635 126.808C127.628 126.967 128.92 128.942 129.781 130.757C132.479 136.495 134.017 142.708 134.309 149.04" fill="#58302F"/>
<g style="mix-blend-mode:overlay" opacity="0.34">
<g style="mix-blend-mode:overlay" opacity="0.34">
<path d="M117.504 200.688C117.058 200.927 114.793 198.044 112.864 192.534C108.989 181.188 109.473 168.81 114.219 157.8C114.99 156.021 116.022 154.368 117.281 152.894C118.407 151.652 119.706 150.58 121.139 149.709C123.141 148.482 125.326 147.584 127.613 147.05C129.207 146.699 130.132 146.699 130.228 146.954C130.323 147.209 129.558 147.75 128.219 148.547C126.338 149.586 124.546 150.78 122.861 152.114C120.511 154.008 118.743 156.525 117.759 159.376C116.419 163.02 115.462 166.794 114.905 170.636C113.933 177.689 114.203 184.857 115.702 191.817C116.802 197.136 118.094 200.401 117.504 200.688Z" fill="#333333"/>
</g>
<g style="mix-blend-mode:overlay" opacity="0.34">
<path d="M148.611 198.06C148.085 198.187 146.841 195.225 146.172 190.097C145.837 187.597 145.63 184.603 145.47 181.338C145.311 178.073 145.151 174.538 144.673 170.938C144.279 167.587 143.47 164.297 142.265 161.144C141.242 158.613 139.85 156.247 138.136 154.121C136.653 152.21 135.362 150.601 134.612 149.343C133.863 148.085 133.608 147.352 133.831 147.177C134.054 147.002 134.724 147.416 135.824 148.276C137.392 149.478 138.898 150.759 140.336 152.114C142.592 154.243 144.435 156.77 145.773 159.567C147.343 162.98 148.366 166.619 148.803 170.349C149.237 173.963 149.408 177.604 149.313 181.242C149.313 184.428 149.169 187.374 149.106 189.89C149.042 194.891 149.233 197.933 148.611 198.06Z" fill="#333333"/>
</g>
<g style="mix-blend-mode:overlay" opacity="0.34">
<path d="M174.33 201.994C173.756 201.994 172.895 197.519 171.954 190.193C171.492 186.53 170.997 182.23 170.535 177.309C170.268 172.199 169.428 167.134 168.032 162.211C167.249 159.881 166.031 157.719 164.444 155.841C162.937 154.118 161.099 152.715 159.039 151.716C155.339 149.982 151.325 149.018 147.24 148.881C143.669 148.69 140.687 148.881 138.614 148.786C136.542 148.69 135.425 148.658 135.346 148.371C135.266 148.085 136.414 147.671 138.439 147.177C141.334 146.501 144.286 146.091 147.256 145.951C151.849 145.659 156.447 146.444 160.681 148.244C163.274 149.379 165.599 151.044 167.506 153.133C169.505 155.395 171.024 158.039 171.97 160.905C173.495 166.161 174.3 171.598 174.362 177.07C174.617 181.943 174.808 186.323 174.888 190.018C175.079 197.423 174.904 201.946 174.33 201.994Z" fill="#333333"/>
</g>
<g style="mix-blend-mode:overlay" opacity="0.34">
<path d="M129.478 146.126C129.478 146.763 125.476 146.492 119.545 147.846C116.109 148.63 112.795 149.873 109.691 151.541C105.957 153.359 102.796 156.169 100.555 159.663C98.4504 163.358 97.8604 167.801 97.3662 171.862C96.8719 175.923 96.4255 179.666 96.0588 182.787C95.3572 189.03 94.7035 192.916 94.1295 192.884C93.5555 192.852 93.1569 188.951 93.125 182.612C93.125 179.427 93.2047 175.668 93.5555 171.464C93.6894 166.646 94.8643 161.914 96.9995 157.593C98.315 155.354 100.04 153.382 102.086 151.78C103.913 150.344 105.897 149.12 108.001 148.133C111.516 146.453 115.289 145.376 119.162 144.947C125.667 144.263 129.606 145.648 129.478 146.126Z" fill="#333333"/>
</g>
</g>
<path d="M75.2674 132.446C71.5079 126.356 69.6515 119.285 69.9356 112.136C70.2196 104.987 72.631 98.0856 76.8618 92.3126C80.4814 105.951 80.6404 120.275 77.3242 133.99" fill="#446815"/>
<path d="M72.812 136.554C65.8497 132.113 60.2194 125.874 56.5171 118.498C52.8149 111.122 51.1785 102.883 51.7813 94.6536C61.7204 105.831 69.5966 118.681 75.0442 132.605" fill="#698937"/>
<path d="M70.7232 133.975C66.2294 133.762 61.8932 132.255 58.2379 129.635C54.5826 127.015 51.7643 123.395 50.123 119.211C60.41 120.142 70.0243 124.718 77.2285 132.111" fill="#446815"/>
<path d="M74.8683 135.615C70.7286 131.378 67.6706 126.209 65.9528 120.543C64.2349 114.877 63.9077 108.881 64.9988 103.062C72.5433 110.6 76.9085 120.74 77.1962 131.395" fill="#88AA4D"/>
<path d="M74.7092 132.477C70.7231 130.885 66.4022 135.121 66.1152 139.373C65.8282 143.626 68.1721 147.591 70.4999 151.174C80.9914 167.355 92.6308 182.771 104.254 198.172C106.199 197.471 106.088 194.716 105.578 192.709C100.696 173.062 94.107 153.879 85.8863 135.376C85.2533 133.503 84.1037 131.847 82.5698 130.598C81.7872 130.016 80.8054 129.768 79.8398 129.908C78.8742 130.049 78.0039 130.566 77.4198 131.347" fill="#F78131"/>
<g opacity="0.36">
<g style="mix-blend-mode:overlay" opacity="0.36">
<g style="mix-blend-mode:overlay" opacity="0.36">
<path d="M76.5906 144.151C77.1168 145.17 75.7934 146.89 73.5453 147.814C71.2971 148.738 69.1446 148.435 68.762 147.352C68.3793 146.269 69.8462 144.82 71.9508 143.96C74.0555 143.1 76.0645 143.132 76.5906 144.151Z" fill="#333333"/>
</g>
</g>
<g style="mix-blend-mode:overlay" opacity="0.36">
<g style="mix-blend-mode:overlay" opacity="0.36">
<path d="M84.4351 151.493C84.3235 150.346 85.6947 149.279 87.4007 148.738C89.1068 148.196 90.8447 148.308 91.4187 149.327C91.9927 150.346 90.8288 152.034 88.6444 152.703C86.46 153.372 84.5307 152.624 84.4351 151.493Z" fill="#333333"/>
</g>
</g>
<g style="mix-blend-mode:overlay" opacity="0.36">
<g style="mix-blend-mode:overlay" opacity="0.36">
<path d="M88.3416 164.234C88.8518 165.269 88.0386 166.718 86.5239 167.419C85.0092 168.119 83.335 167.976 82.8248 166.957C82.3146 165.938 83.1118 164.472 84.6425 163.772C86.1731 163.071 87.8154 163.214 88.3416 164.234Z" fill="#333333"/>
</g>
</g>
<g style="mix-blend-mode:overlay" opacity="0.36">
<g style="mix-blend-mode:overlay" opacity="0.36">
<path d="M80.0506 130.136C79.9709 131.299 77.7387 132.111 75.2673 132.955C72.7959 133.799 70.484 134.42 69.6868 133.513C69.336 133.067 69.5273 132.254 70.2767 131.347C71.2784 130.251 72.5557 129.442 73.9758 129.006C75.3852 128.517 76.9017 128.423 78.3605 128.735C79.365 129.022 80.0506 129.563 80.0506 130.136Z" fill="#333333"/>
</g>
</g>
</g>
<path d="M80.0507 130.136C79.9709 131.299 77.7387 132.111 75.2673 132.955C72.7959 133.799 70.484 134.42 69.6868 133.513C69.336 133.067 69.5273 132.254 70.2767 131.347C71.2784 130.251 72.5557 129.442 73.9758 129.006C75.3852 128.517 76.9017 128.423 78.3605 128.735C79.365 129.022 80.0507 129.563 80.0507 130.136Z" fill="#333333"/>
<path d="M84.8337 212.377C106.323 218.907 128.808 221.544 151.226 220.165C162.993 219.417 176.179 216.677 182.493 206.453C186.081 200.656 186.702 193.489 187.276 186.625L188.377 172.292C188.52 170.349 188.377 167.849 186.559 167.196C185.947 167.085 185.319 167.1 184.713 167.239C184.108 167.379 183.537 167.641 183.035 168.008C164.045 178.185 141.42 177.022 120.039 175.621C104.095 174.554 88.5647 171.926 73.577 166.065C73.6726 166.065 69.4952 207.456 84.8337 212.377Z" fill="#58302F"/>
<path d="M156.058 181.115C158.274 173.932 161.16 166.782 166.182 161.16C171.205 155.538 178.683 151.716 186.161 152.671C194.133 153.691 200.399 159.695 205.119 166.113C212.957 176.784 217.959 189.266 219.66 202.392C220.135 204.944 220.048 207.569 219.405 210.084C219.056 211.337 218.371 212.471 217.424 213.364C216.477 214.257 215.304 214.874 214.031 215.148C209.998 215.706 206.904 211.788 204.736 208.348L193.256 190.177C190.801 185.85 187.764 181.88 184.231 178.376C182.457 176.628 180.348 175.258 178.03 174.347C175.712 173.435 173.233 173.002 170.742 173.072C165.784 173.471 160.953 177.165 160.331 182.086" fill="#446815"/>
<g style="mix-blend-mode:overlay">
<g style="mix-blend-mode:overlay">
<path d="M211.974 196.643C211.751 196.786 209.296 193.235 205.485 187.39C203.572 184.428 201.339 181.019 198.868 177.086C196.366 172.881 193.08 169.195 189.19 166.224C187.296 164.783 185.1 163.789 182.766 163.317C180.433 162.846 178.023 162.908 175.717 163.501C171.973 164.823 168.611 167.043 165.927 169.967C161.144 174.856 159.087 178.774 158.8 178.599C159.021 177.59 159.444 176.637 160.043 175.796C161.422 173.368 163.069 171.103 164.954 169.043C167.691 165.798 171.223 163.318 175.207 161.845C177.66 161.063 180.274 160.926 182.796 161.447C185.461 162.003 187.987 163.086 190.226 164.632C194.325 167.732 197.748 171.633 200.287 176.098C202.727 180.048 204.815 183.631 206.665 186.641C210.141 192.645 212.198 196.515 211.974 196.643Z" fill="#333333"/>
</g>
<g style="mix-blend-mode:overlay">
<path d="M190.609 181.497C190.37 181.354 190.816 180.271 190.991 178.487C191.197 176.152 190.875 173.801 190.051 171.607C189.164 169.4 188.097 167.27 186.862 165.237C185.905 163.644 185.379 162.514 185.602 162.354C185.825 162.195 186.702 162.991 187.946 164.472C189.622 166.421 190.954 168.639 191.884 171.034C192.842 173.513 193.014 176.226 192.379 178.806C191.741 180.653 190.8 181.577 190.609 181.497Z" fill="#333333"/>
</g>
<g style="mix-blend-mode:overlay">
<path d="M199.825 192.12C199.299 192.12 199.219 188.457 199.203 184.045C199.187 179.634 199.203 176.082 199.793 175.987C200.383 175.891 201.085 179.538 201.085 184.045C201.085 188.552 200.335 192.167 199.825 192.12Z" fill="#333333"/>
</g>
<g style="mix-blend-mode:overlay">
<path d="M199.729 162.8C199.729 163.326 196.811 163.708 193.24 163.835C189.668 163.963 186.734 163.835 186.687 163.262C186.639 162.689 189.541 162.084 193.176 161.956C196.811 161.829 199.745 162.291 199.729 162.8Z" fill="#333333"/>
</g>
<g style="mix-blend-mode:overlay">
<path d="M208.339 176.719C208.339 177.229 206.186 177.611 203.683 176.831C201.18 176.051 199.617 174.506 199.92 174.092C200.223 173.678 202.025 174.346 204.241 175.031C206.457 175.716 208.355 176.114 208.339 176.719Z" fill="#333333"/>
</g>
</g>
<path d="M153.729 176.051C153.729 176.051 166.198 174.458 169.897 173.295L169.052 185.256L152.486 186.036L153.729 176.051Z" fill="#58302F"/>
<path d="M221.222 218.461C216.614 215.578 171.157 205.72 148.5 200.943C145.12 210.498 141.554 219.958 137.801 229.322C163.233 242.318 195.919 255.743 210.843 256.062C228.86 256.349 233.531 225.819 221.222 218.461Z" fill="#F9C4B4"/>
<path d="M184.151 208.826L204.815 212.791" stroke="#333333" stroke-width="1.1" stroke-miterlimit="10" stroke-linecap="round"/>
<path d="M158.561 201.389C146.236 198.745 135.266 196.611 135.266 196.611C134.708 195.512 127.852 182.612 124.503 181.258C119.305 179.14 121.506 192.024 123.61 193.999C121.426 192.406 102.883 181.704 100.268 183.647C98.3067 185.112 110.839 195.225 110.839 195.225C110.839 195.225 92.0884 187.119 91.2593 189.11C90.4302 191.1 107.778 199.939 107.778 199.939C107.778 199.939 92.8059 195.544 92.0246 197.869C91.3709 199.86 105.912 206.23 105.912 206.23C105.912 206.23 95.3729 205.991 94.7511 208.014C94.1293 210.036 110.042 213.922 113.151 215.132C121.57 220.531 134.819 231.504 147.989 237.795C148.245 237.238 155.93 211.438 158.561 201.389Z" fill="#FC9B27"/>
<path d="M158.561 201.389C158.561 201.389 160.522 200.847 160.697 201.739C160.872 202.631 151.13 238.703 149.313 238.368L147.543 238.002L158.561 201.389Z" fill="#FCB970"/>
</svg>
